<svg id="svg" version="1.1" xmlns="http://www.w3.org/2000/svg" xmlns:xlink="http://www.w3.org/1999/xlink" width="400" height="400" viewBox="0, 0, 400,400"><g id="svgg"><path id="path0" d="M185.900 0.280 C 181.373 0.363,178.400 0.573,178.400 0.809 C 178.400 1.041,176.531 1.200,173.800 1.200 C 171.000 1.200,169.200 1.357,169.200 1.600 C 169.200 1.833,167.867 2.000,166.000 2.000 C 164.133 2.000,162.800 2.167,162.800 2.400 C 162.800 2.628,161.608 2.800,160.024 2.800 C 158.497 2.800,157.136 2.980,157.000 3.200 C 156.864 3.420,155.683 3.600,154.376 3.600 C 153.059 3.600,152.000 3.778,152.000 4.000 C 152.000 4.220,151.021 4.400,149.824 4.400 C 148.627 4.400,147.536 4.580,147.400 4.800 C 147.264 5.020,146.364 5.200,145.400 5.200 C 144.436 5.200,143.536 5.380,143.400 5.600 C 143.264 5.820,142.353 6.000,141.376 6.000 C 140.399 6.000,139.600 6.180,139.600 6.400 C 139.600 6.620,138.880 6.800,138.000 6.800 C 137.120 6.800,136.400 6.980,136.400 7.200 C 136.400 7.420,135.601 7.600,134.624 7.600 C 133.647 7.600,132.749 7.759,132.629 7.953 C 132.509 8.147,131.241 8.431,129.810 8.584 C 128.379 8.737,127.106 9.029,126.981 9.231 C 126.855 9.434,126.397 9.600,125.963 9.600 C 124.814 9.600,122.400 12.165,122.400 13.387 C 122.400 13.944,122.220 14.400,122.000 14.400 C 121.260 14.400,121.592 16.354,122.500 17.351 C 122.995 17.894,123.815 18.888,124.323 19.560 C 126.083 21.890,127.324 21.926,135.848 19.897 C 144.718 17.784,145.660 17.592,155.000 15.986 C 163.114 14.592,171.634 13.617,183.200 12.759 C 189.968 12.258,214.681 12.516,222.000 13.164 C 227.842 13.682,233.901 14.312,235.800 14.600 C 236.680 14.733,238.526 15.009,239.902 15.212 C 247.227 16.294,253.902 17.481,257.800 18.394 C 258.680 18.600,261.020 19.148,263.000 19.610 C 269.906 21.224,283.566 25.306,287.000 26.782 C 287.440 26.971,288.610 27.427,289.600 27.796 C 290.590 28.164,292.030 28.739,292.800 29.074 C 293.570 29.408,294.560 29.827,295.000 30.004 C 301.429 32.599,314.094 38.988,317.220 41.214 C 317.827 41.646,318.436 42.000,318.574 42.000 C 318.961 42.000,327.988 48.110,331.688 50.876 C 341.671 58.339,350.746 67.149,359.426 77.804 C 361.447 80.284,366.857 87.764,367.857 89.460 C 368.266 90.154,369.733 92.584,371.119 94.860 C 375.398 101.894,381.348 114.516,383.818 121.800 C 387.116 131.525,381.712 141.541,372.080 143.557 C 368.675 144.269,30.074 144.170,27.400 143.456 C 19.355 141.307,13.535 132.762,15.194 125.533 C 16.822 118.436,25.299 99.672,29.647 93.538 C 30.061 92.954,30.400 92.362,30.400 92.223 C 30.400 92.083,31.511 90.311,32.868 88.285 C 40.032 77.591,48.245 68.105,58.200 59.028 C 61.119 56.366,68.953 50.181,72.200 47.974 C 73.960 46.779,75.749 45.485,76.175 45.100 C 76.602 44.715,77.107 44.400,77.297 44.400 C 77.488 44.400,78.669 43.712,79.922 42.871 C 83.651 40.368,89.047 37.419,95.821 34.182 C 99.330 32.505,103.188 30.654,104.395 30.067 C 107.663 28.479,108.507 26.992,108.240 23.290 C 108.038 20.495,107.465 19.200,106.429 19.200 C 106.193 19.200,106.000 19.020,106.000 18.800 C 106.000 18.567,104.667 18.400,102.800 18.400 C 100.933 18.400,99.600 18.567,99.600 18.800 C 99.600 19.020,99.161 19.200,98.624 19.200 C 98.087 19.200,97.536 19.380,97.400 19.600 C 97.264 19.820,96.803 20.000,96.376 20.000 C 95.949 20.000,95.600 20.180,95.600 20.400 C 95.600 20.620,95.240 20.800,94.800 20.800 C 94.360 20.800,94.000 20.980,94.000 21.200 C 94.000 21.420,93.640 21.600,93.200 21.600 C 92.760 21.600,92.400 21.780,92.400 22.000 C 92.400 22.220,92.130 22.400,91.800 22.400 C 91.470 22.400,91.200 22.580,91.200 22.800 C 91.200 23.020,90.864 23.200,90.453 23.200 C 90.042 23.200,88.475 23.830,86.972 24.600 C 85.468 25.370,84.005 26.000,83.719 26.000 C 83.434 26.000,83.200 26.180,83.200 26.400 C 83.200 26.620,82.840 26.800,82.400 26.800 C 81.960 26.800,81.600 26.938,81.600 27.106 C 81.600 27.274,80.904 27.713,80.053 28.082 C 79.201 28.450,78.256 28.988,77.953 29.276 C 77.649 29.564,76.860 30.069,76.200 30.397 C 75.540 30.726,74.709 31.311,74.353 31.697 C 73.997 32.084,73.412 32.400,73.053 32.400 C 72.694 32.400,72.400 32.580,72.400 32.800 C 72.400 33.020,72.164 33.200,71.875 33.200 C 71.587 33.200,71.002 33.515,70.575 33.900 C 70.149 34.285,69.305 34.855,68.700 35.168 C 68.095 35.480,67.600 35.885,67.600 36.068 C 67.600 36.250,67.357 36.400,67.059 36.400 C 66.762 36.400,65.954 36.940,65.263 37.600 C 64.572 38.260,63.817 38.800,63.585 38.800 C 63.353 38.800,62.739 39.225,62.220 39.744 C 61.700 40.263,60.629 41.088,59.838 41.577 C 59.047 42.065,58.400 42.618,58.400 42.806 C 58.400 42.993,58.043 43.259,57.607 43.398 C 57.171 43.536,56.076 44.358,55.174 45.225 C 54.272 46.091,53.377 46.800,53.185 46.800 C 52.862 46.800,51.179 48.380,43.731 55.675 C 39.252 60.063,35.035 64.546,34.001 66.018 C 33.467 66.778,32.529 67.877,31.915 68.460 C 31.302 69.044,30.800 69.684,30.800 69.882 C 30.800 70.081,30.170 70.931,29.400 71.772 C 28.630 72.613,28.000 73.430,28.000 73.589 C 28.000 73.748,27.661 74.269,27.246 74.747 C 26.831 75.225,26.066 76.242,25.546 77.006 C 25.026 77.770,24.465 78.396,24.300 78.397 C 24.135 78.399,24.000 78.720,24.000 79.112 C 24.000 79.503,23.640 80.083,23.200 80.400 C 22.760 80.717,22.400 81.257,22.400 81.600 C 22.400 81.943,22.040 82.483,21.600 82.800 C 21.160 83.117,20.800 83.697,20.800 84.088 C 20.800 84.480,20.620 84.800,20.400 84.800 C 20.180 84.800,20.000 85.036,20.000 85.325 C 20.000 85.613,19.640 86.236,19.200 86.708 C 18.760 87.180,18.400 87.844,18.400 88.183 C 18.400 88.522,18.220 88.800,18.000 88.800 C 17.780 88.800,17.600 89.120,17.600 89.512 C 17.600 89.903,17.240 90.483,16.800 90.800 C 16.360 91.117,16.000 91.697,16.000 92.088 C 16.000 92.480,15.854 92.800,15.675 92.800 C 15.496 92.800,15.102 93.430,14.800 94.200 C 14.498 94.970,14.104 95.600,13.925 95.600 C 13.746 95.600,13.600 95.960,13.600 96.400 C 13.600 96.840,13.420 97.200,13.200 97.200 C 12.980 97.200,12.800 97.560,12.800 98.000 C 12.800 98.440,12.620 98.800,12.400 98.800 C 12.180 98.800,12.000 99.160,12.000 99.600 C 12.000 100.040,11.820 100.400,11.600 100.400 C 11.380 100.400,11.200 100.760,11.200 101.200 C 11.200 101.640,11.020 102.000,10.800 102.000 C 10.580 102.000,10.400 102.236,10.400 102.525 C 10.400 102.814,10.052 103.771,9.626 104.652 C 9.200 105.533,8.721 106.782,8.560 107.427 C 8.399 108.072,7.938 109.190,7.534 109.912 C 7.130 110.634,6.800 111.579,6.800 112.012 C 6.800 112.445,6.620 112.800,6.400 112.800 C 6.180 112.800,6.000 113.250,6.000 113.800 C 6.000 114.350,5.820 114.800,5.600 114.800 C 5.380 114.800,5.200 115.250,5.200 115.800 C 5.200 116.350,5.020 116.800,4.800 116.800 C 4.580 116.800,4.400 117.340,4.400 118.000 C 4.400 118.660,4.220 119.200,4.000 119.200 C 3.780 119.200,3.600 119.909,3.600 120.776 C 3.600 121.643,3.420 122.464,3.200 122.600 C 2.663 122.932,2.663 133.200,3.200 133.200 C 3.420 133.200,3.600 133.920,3.600 134.800 C 3.600 135.680,3.780 136.400,4.000 136.400 C 4.220 136.400,4.400 136.940,4.400 137.600 C 4.400 138.260,4.580 138.800,4.800 138.800 C 5.020 138.800,5.200 139.160,5.200 139.600 C 5.200 140.040,5.380 140.400,5.600 140.400 C 5.820 140.400,6.000 140.670,6.000 141.000 C 6.000 141.330,6.180 141.600,6.400 141.600 C 6.620 141.600,6.800 141.920,6.800 142.312 C 6.800 142.703,7.160 143.283,7.600 143.600 C 8.040 143.917,8.400 144.465,8.400 144.817 C 8.400 145.169,9.211 146.303,10.202 147.337 L 12.003 149.218 10.302 151.008 C 9.366 151.992,7.835 153.604,6.900 154.589 C 5.965 155.575,5.200 156.589,5.200 156.844 C 5.200 157.098,4.871 157.597,4.470 157.953 C 4.068 158.309,3.484 159.185,3.172 159.900 C 2.860 160.615,2.469 161.200,2.302 161.200 C 2.136 161.200,2.000 161.549,2.000 161.976 C 2.000 162.403,1.820 162.864,1.600 163.000 C 1.380 163.136,1.200 163.672,1.200 164.190 C 1.200 164.709,0.975 165.208,0.700 165.300 C 0.314 165.428,0.200 168.369,0.200 178.200 C 0.200 188.031,0.314 190.971,0.700 191.100 C 0.975 191.192,1.200 191.702,1.200 192.233 C 1.200 192.765,1.380 193.200,1.600 193.200 C 1.820 193.200,2.000 193.543,2.000 193.962 C 2.000 194.869,3.608 198.000,4.074 198.000 C 4.253 198.000,4.400 198.320,4.400 198.712 C 4.400 199.103,4.760 199.683,5.200 200.000 C 5.640 200.317,6.000 200.786,6.000 201.043 C 6.000 201.681,10.257 205.983,12.097 207.206 C 12.921 207.752,13.596 208.335,13.597 208.500 C 13.599 208.665,13.960 208.800,14.400 208.800 C 14.840 208.800,15.200 208.980,15.200 209.200 C 15.200 209.420,15.560 209.600,16.000 209.600 C 16.440 209.600,16.800 209.780,16.800 210.000 C 16.800 210.220,17.160 210.400,17.600 210.400 C 18.040 210.400,18.400 210.580,18.400 210.800 C 18.400 211.020,18.760 211.200,19.200 211.200 C 19.640 211.200,20.000 211.380,20.000 211.600 C 20.000 211.820,20.540 212.000,21.200 212.000 C 21.860 212.000,22.400 212.180,22.400 212.400 C 22.400 212.620,22.940 212.800,23.600 212.800 L 24.800 212.800 24.800 229.429 C 24.800 247.630,24.857 247.200,22.452 247.200 C 21.789 247.200,21.136 247.380,21.000 247.600 C 20.864 247.820,20.403 248.000,19.976 248.000 C 19.549 248.000,19.200 248.180,19.200 248.400 C 19.200 248.620,18.966 248.800,18.680 248.800 C 17.944 248.800,16.007 249.741,16.003 250.100 C 16.001 250.265,15.640 250.400,15.200 250.400 C 14.760 250.400,14.400 250.580,14.400 250.800 C 14.400 251.020,14.130 251.200,13.800 251.200 C 13.470 251.200,13.200 251.380,13.200 251.600 C 13.200 251.820,13.023 252.000,12.807 252.000 C 12.128 252.000,7.600 256.237,7.600 256.873 C 7.600 257.067,7.015 257.827,6.300 258.560 C 4.295 260.617,3.600 261.556,3.600 262.205 C 3.600 262.532,3.420 262.800,3.200 262.800 C 2.980 262.800,2.800 263.160,2.800 263.600 C 2.800 264.040,2.620 264.400,2.400 264.400 C 2.180 264.400,2.000 264.760,2.000 265.200 C 2.000 265.640,1.820 266.000,1.600 266.000 C 1.380 266.000,1.200 266.525,1.200 267.167 C 1.200 267.808,0.975 268.408,0.700 268.500 C 0.314 268.628,0.200 271.529,0.200 281.200 C 0.200 290.871,0.314 293.771,0.700 293.900 C 0.975 293.992,1.200 294.592,1.200 295.233 C 1.200 295.875,1.380 296.400,1.600 296.400 C 1.820 296.400,2.000 296.760,2.000 297.200 C 2.000 297.640,2.180 298.000,2.400 298.000 C 2.620 298.000,2.800 298.360,2.800 298.800 C 2.800 299.240,2.980 299.600,3.200 299.600 C 3.420 299.600,3.600 299.960,3.600 300.400 C 3.600 300.840,3.780 301.200,4.000 301.200 C 4.220 301.200,4.400 301.443,4.400 301.741 C 4.400 302.038,4.940 302.846,5.600 303.537 C 6.260 304.228,6.800 304.893,6.800 305.015 C 6.800 305.345,10.265 308.800,10.595 308.800 C 10.751 308.800,11.383 309.340,12.000 310.000 C 12.617 310.660,13.326 311.200,13.577 311.200 C 13.828 311.200,14.420 311.560,14.892 312.000 C 15.364 312.440,15.987 312.800,16.275 312.800 C 16.564 312.800,16.800 312.980,16.800 313.200 C 16.800 313.420,17.149 313.600,17.576 313.600 C 18.003 313.600,18.464 313.780,18.600 314.000 C 18.736 314.220,19.287 314.400,19.824 314.400 C 20.361 314.400,20.800 314.580,20.800 314.800 C 20.800 315.020,21.340 315.200,22.000 315.200 C 22.660 315.200,23.200 315.380,23.200 315.600 C 23.200 315.820,23.560 316.000,24.000 316.000 C 24.759 316.000,24.801 316.275,24.825 321.300 C 24.838 324.215,25.018 327.950,25.225 329.600 C 25.431 331.250,25.713 333.548,25.850 334.707 C 25.988 335.866,26.258 336.912,26.450 337.031 C 26.643 337.150,26.800 337.779,26.800 338.429 C 26.800 339.079,26.965 339.923,27.167 340.305 C 27.368 340.687,27.953 342.394,28.467 344.098 C 28.980 345.802,29.535 347.197,29.700 347.198 C 29.865 347.199,30.000 347.639,30.000 348.176 C 30.000 348.713,30.180 349.264,30.400 349.400 C 30.620 349.536,30.800 349.997,30.800 350.424 C 30.800 350.851,30.980 351.200,31.200 351.200 C 31.420 351.200,31.600 351.560,31.600 352.000 C 31.600 352.440,31.780 352.800,32.000 352.800 C 32.220 352.800,32.400 353.160,32.400 353.600 C 32.400 354.040,32.536 354.400,32.702 354.400 C 32.869 354.400,33.264 354.985,33.580 355.700 C 33.897 356.415,34.480 357.349,34.878 357.775 C 35.275 358.202,35.600 358.787,35.600 359.075 C 35.600 359.364,35.750 359.600,35.932 359.600 C 36.115 359.600,36.519 360.095,36.830 360.700 C 37.140 361.305,37.711 362.091,38.097 362.447 C 38.484 362.803,38.800 363.316,38.800 363.586 C 38.800 363.857,39.340 364.583,40.000 365.200 C 40.660 365.817,41.200 366.474,41.200 366.660 C 41.202 367.619,49.519 376.000,50.469 376.000 C 50.651 376.000,51.541 376.720,52.448 377.600 C 53.355 378.480,54.305 379.200,54.560 379.200 C 54.815 379.200,55.283 379.560,55.600 380.000 C 55.917 380.440,56.457 380.800,56.800 380.800 C 57.143 380.800,57.683 381.160,58.000 381.600 C 58.317 382.040,58.807 382.400,59.088 382.400 C 59.370 382.400,59.600 382.550,59.600 382.732 C 59.600 382.915,60.095 383.320,60.700 383.632 C 61.305 383.944,61.890 384.289,62.000 384.399 C 62.394 384.795,64.613 386.054,65.300 386.271 C 65.685 386.393,66.000 386.652,66.000 386.847 C 66.000 387.041,66.360 387.200,66.800 387.200 C 67.240 387.200,67.600 387.380,67.600 387.600 C 67.600 387.820,67.960 388.000,68.400 388.000 C 68.840 388.000,69.200 388.180,69.200 388.400 C 69.200 388.620,69.560 388.800,70.000 388.800 C 70.440 388.800,70.800 388.980,70.800 389.200 C 70.800 389.420,71.036 389.600,71.325 389.600 C 71.614 389.600,72.605 389.965,73.527 390.410 C 74.450 390.856,75.747 391.329,76.411 391.462 C 77.074 391.595,77.714 391.860,77.832 392.052 C 77.950 392.243,78.487 392.400,79.024 392.400 C 79.561 392.400,80.000 392.580,80.000 392.800 C 80.000 393.020,80.540 393.200,81.200 393.200 C 81.860 393.200,82.400 393.380,82.400 393.600 C 82.400 393.820,82.940 394.000,83.600 394.000 C 84.260 394.000,84.800 394.180,84.800 394.400 C 84.800 394.620,85.340 394.800,86.000 394.800 C 86.660 394.800,87.200 394.980,87.200 395.200 C 87.200 395.420,87.740 395.600,88.400 395.600 C 89.060 395.600,89.600 395.780,89.600 396.000 C 89.600 396.220,90.320 396.400,91.200 396.400 C 92.080 396.400,92.800 396.580,92.800 396.800 C 92.800 397.020,93.610 397.200,94.600 397.200 C 95.590 397.200,96.400 397.380,96.400 397.600 C 96.400 397.820,97.300 398.000,98.400 398.000 C 99.500 398.000,100.400 398.180,100.400 398.400 C 100.400 398.628,101.589 398.800,103.167 398.800 C 105.024 398.800,105.988 398.964,106.100 399.300 C 106.233 399.698,125.369 399.800,200.000 399.800 C 274.631 399.800,293.767 399.698,293.900 399.300 C 294.012 398.964,294.976 398.800,296.833 398.800 C 298.411 398.800,299.600 398.628,299.600 398.400 C 299.600 398.180,300.500 398.000,301.600 398.000 C 302.700 398.000,303.600 397.820,303.600 397.600 C 303.600 397.380,304.410 397.200,305.400 397.200 C 306.390 397.200,307.200 397.020,307.200 396.800 C 307.200 396.580,307.920 396.400,308.800 396.400 C 309.680 396.400,310.400 396.220,310.400 396.000 C 310.400 395.780,310.940 395.600,311.600 395.600 C 312.260 395.600,312.800 395.420,312.800 395.200 C 312.800 394.980,313.329 394.800,313.976 394.800 C 314.623 394.800,315.264 394.620,315.400 394.400 C 315.536 394.180,316.087 394.000,316.624 394.000 C 317.161 394.000,317.600 393.820,317.600 393.600 C 317.600 393.380,318.140 393.200,318.800 393.200 C 319.460 393.200,320.000 393.020,320.000 392.800 C 320.000 392.580,320.439 392.400,320.976 392.400 C 321.513 392.400,322.050 392.243,322.168 392.052 C 322.286 391.860,322.926 391.595,323.589 391.462 C 324.253 391.329,325.550 390.856,326.473 390.410 C 327.395 389.965,328.386 389.600,328.675 389.600 C 328.964 389.600,329.200 389.420,329.200 389.200 C 329.200 388.980,329.560 388.800,330.000 388.800 C 330.440 388.800,330.800 388.620,330.800 388.400 C 330.800 388.180,331.160 388.000,331.600 388.000 C 332.040 388.000,332.400 387.820,332.400 387.600 C 332.400 387.380,332.760 387.200,333.200 387.200 C 333.640 387.200,334.000 387.041,334.000 386.847 C 334.000 386.652,334.315 386.393,334.700 386.271 C 335.387 386.054,337.606 384.795,338.000 384.399 C 338.110 384.289,338.695 383.944,339.300 383.632 C 339.905 383.320,340.400 382.915,340.400 382.732 C 340.400 382.550,340.630 382.400,340.912 382.400 C 341.193 382.400,341.683 382.040,342.000 381.600 C 342.317 381.160,342.857 380.800,343.200 380.800 C 343.543 380.800,344.083 380.440,344.400 380.000 C 344.717 379.560,345.221 379.200,345.520 379.200 C 345.818 379.200,346.754 378.480,347.600 377.600 C 348.446 376.720,349.300 376.000,349.499 376.000 C 350.475 376.000,358.798 367.641,358.800 366.660 C 358.800 366.474,359.340 365.817,360.000 365.200 C 360.660 364.583,361.200 363.857,361.200 363.586 C 361.200 363.316,361.516 362.803,361.903 362.447 C 362.289 362.091,362.860 361.305,363.170 360.700 C 363.481 360.095,363.885 359.600,364.068 359.600 C 364.250 359.600,364.400 359.364,364.400 359.075 C 364.400 358.787,364.725 358.202,365.122 357.775 C 365.520 357.349,366.103 356.415,366.420 355.700 C 366.736 354.985,367.131 354.400,367.298 354.400 C 367.464 354.400,367.600 354.040,367.600 353.600 C 367.600 353.160,367.780 352.800,368.000 352.800 C 368.220 352.800,368.400 352.440,368.400 352.000 C 368.400 351.560,368.580 351.200,368.800 351.200 C 369.020 351.200,369.200 350.851,369.200 350.424 C 369.200 349.997,369.380 349.536,369.600 349.400 C 369.820 349.264,370.000 348.713,370.000 348.176 C 370.000 347.639,370.135 347.199,370.300 347.198 C 370.465 347.197,371.020 345.802,371.533 344.098 C 372.047 342.394,372.632 340.687,372.833 340.305 C 373.035 339.923,373.200 339.079,373.200 338.429 C 373.200 337.779,373.357 337.150,373.550 337.031 C 373.742 336.912,374.012 335.866,374.150 334.707 C 374.287 333.548,374.569 331.250,374.775 329.600 C 374.982 327.950,375.162 324.215,375.175 321.300 C 375.199 316.275,375.241 316.000,376.000 316.000 C 376.440 316.000,376.800 315.820,376.800 315.600 C 376.800 315.380,377.340 315.200,378.000 315.200 C 378.660 315.200,379.200 315.020,379.200 314.800 C 379.200 314.580,379.639 314.400,380.176 314.400 C 380.713 314.400,381.264 314.220,381.400 314.000 C 381.536 313.780,381.997 313.600,382.424 313.600 C 382.851 313.600,383.200 313.420,383.200 313.200 C 383.200 312.980,383.436 312.800,383.725 312.800 C 384.013 312.800,384.636 312.440,385.108 312.000 C 385.580 311.560,386.172 311.200,386.423 311.200 C 386.674 311.200,387.383 310.660,388.000 310.000 C 388.617 309.340,389.249 308.800,389.405 308.800 C 389.735 308.800,393.200 305.345,393.200 305.015 C 393.200 304.893,393.740 304.228,394.400 303.537 C 395.060 302.846,395.600 302.038,395.600 301.741 C 395.600 301.443,395.780 301.200,396.000 301.200 C 396.220 301.200,396.400 300.840,396.400 300.400 C 396.400 299.960,396.580 299.600,396.800 299.600 C 397.020 299.600,397.200 299.240,397.200 298.800 C 397.200 298.360,397.380 298.000,397.600 298.000 C 397.820 298.000,398.000 297.640,398.000 297.200 C 398.000 296.760,398.180 296.400,398.400 296.400 C 398.620 296.400,398.800 295.875,398.800 295.233 C 398.800 294.592,399.025 293.992,399.300 293.900 C 400.027 293.657,400.027 268.742,399.300 268.500 C 399.025 268.408,398.800 267.808,398.800 267.167 C 398.800 266.525,398.620 266.000,398.400 266.000 C 398.180 266.000,398.000 265.640,398.000 265.200 C 398.000 264.760,397.820 264.400,397.600 264.400 C 397.380 264.400,397.200 264.040,397.200 263.600 C 397.200 263.160,397.020 262.800,396.800 262.800 C 396.580 262.800,396.400 262.532,396.400 262.205 C 396.400 261.556,395.705 260.617,393.700 258.560 C 392.985 257.827,392.400 257.055,392.400 256.846 C 392.400 256.192,386.849 251.200,386.122 251.200 C 385.835 251.200,385.600 251.020,385.600 250.800 C 385.600 250.580,385.322 250.400,384.983 250.400 C 384.644 250.400,383.980 250.040,383.508 249.600 C 383.036 249.160,382.233 248.800,381.725 248.800 C 381.216 248.800,380.800 248.620,380.800 248.400 C 380.800 248.180,380.451 248.000,380.024 248.000 C 379.597 248.000,379.136 247.820,379.000 247.600 C 378.864 247.380,378.211 247.200,377.548 247.200 C 375.143 247.200,375.200 247.630,375.200 229.429 L 375.200 212.800 376.400 212.800 C 377.060 212.800,377.600 212.620,377.600 212.400 C 377.600 212.180,378.140 212.000,378.800 212.000 C 379.460 212.000,380.000 211.820,380.000 211.600 C 380.000 211.380,380.360 211.200,380.800 211.200 C 381.240 211.200,381.600 211.020,381.600 210.800 C 381.600 210.580,381.960 210.400,382.400 210.400 C 382.840 210.400,383.200 210.220,383.200 210.000 C 383.200 209.780,383.560 209.600,384.000 209.600 C 384.440 209.600,384.800 209.420,384.800 209.200 C 384.800 208.980,385.160 208.800,385.600 208.800 C 386.040 208.800,386.401 208.665,386.403 208.500 C 386.404 208.335,387.079 207.752,387.903 207.206 C 389.743 205.983,394.000 201.681,394.000 201.043 C 394.000 200.786,394.360 200.317,394.800 200.000 C 395.240 199.683,395.600 199.103,395.600 198.712 C 395.600 198.320,395.780 198.000,396.000 198.000 C 396.220 198.000,396.400 197.764,396.400 197.475 C 396.400 197.187,396.760 196.564,397.200 196.092 C 397.640 195.620,398.000 194.776,398.000 194.217 C 398.000 193.658,398.180 193.200,398.400 193.200 C 398.620 193.200,398.800 192.765,398.800 192.233 C 398.800 191.702,399.025 191.192,399.300 191.100 C 399.686 190.971,399.800 188.031,399.800 178.200 C 399.800 168.369,399.686 165.428,399.300 165.300 C 399.025 165.208,398.800 164.814,398.800 164.423 C 398.800 163.486,396.402 158.777,395.504 157.953 C 395.117 157.597,394.800 157.098,394.800 156.843 C 394.800 156.588,394.035 155.574,393.100 154.591 C 392.165 153.607,390.634 151.996,389.699 151.009 L 387.998 149.216 389.799 147.337 C 390.789 146.303,391.600 145.169,391.600 144.817 C 391.600 144.465,391.960 143.917,392.400 143.600 C 392.840 143.283,393.200 142.718,393.200 142.345 C 393.200 141.972,393.335 141.607,393.500 141.533 C 393.999 141.312,395.600 137.978,395.600 137.162 C 395.600 136.743,395.780 136.400,396.000 136.400 C 396.220 136.400,396.400 135.500,396.400 134.400 C 396.400 133.300,396.580 132.400,396.800 132.400 C 397.043 132.400,397.200 130.600,397.200 127.800 C 397.200 125.000,397.043 123.200,396.800 123.200 C 396.580 123.200,396.400 122.300,396.400 121.200 C 396.400 120.100,396.220 119.200,396.000 119.200 C 395.780 119.200,395.600 118.660,395.600 118.000 C 395.600 117.340,395.420 116.800,395.200 116.800 C 394.980 116.800,394.800 116.361,394.800 115.824 C 394.800 115.287,394.620 114.736,394.400 114.600 C 394.180 114.464,394.000 114.003,394.000 113.576 C 394.000 113.149,393.820 112.800,393.600 112.800 C 393.380 112.800,393.200 112.445,393.200 112.012 C 393.200 111.579,392.870 110.634,392.466 109.912 C 392.062 109.190,391.601 108.072,391.440 107.427 C 391.279 106.782,390.800 105.533,390.374 104.652 C 389.948 103.771,389.600 102.814,389.600 102.525 C 389.600 102.236,389.420 102.000,389.200 102.000 C 388.980 102.000,388.800 101.640,388.800 101.200 C 388.800 100.760,388.620 100.400,388.400 100.400 C 388.180 100.400,388.000 100.040,388.000 99.600 C 388.000 99.160,387.820 98.800,387.600 98.800 C 387.380 98.800,387.200 98.440,387.200 98.000 C 387.200 97.560,387.020 97.200,386.800 97.200 C 386.580 97.200,386.400 96.840,386.400 96.400 C 386.400 95.960,386.254 95.600,386.075 95.600 C 385.896 95.600,385.502 94.970,385.200 94.200 C 384.898 93.430,384.504 92.800,384.325 92.800 C 384.146 92.800,384.000 92.480,384.000 92.088 C 384.000 91.697,383.640 91.117,383.200 90.800 C 382.760 90.483,382.400 89.903,382.400 89.512 C 382.400 89.120,382.220 88.800,382.000 88.800 C 381.780 88.800,381.600 88.480,381.600 88.088 C 381.600 87.697,381.240 87.117,380.800 86.800 C 380.360 86.483,380.000 85.903,380.000 85.512 C 380.000 85.120,379.820 84.800,379.600 84.800 C 379.380 84.800,379.200 84.564,379.200 84.275 C 379.200 83.987,378.840 83.364,378.400 82.892 C 377.960 82.420,377.600 81.796,377.600 81.505 C 377.600 81.214,377.240 80.717,376.800 80.400 C 376.360 80.083,376.000 79.662,376.000 79.465 C 376.000 79.102,373.439 75.440,372.508 74.471 C 372.229 74.181,372.000 73.798,372.000 73.622 C 372.000 73.445,371.370 72.613,370.600 71.772 C 369.830 70.931,369.200 70.085,369.200 69.890 C 369.200 69.696,368.480 68.846,367.600 68.000 C 366.720 67.154,366.000 66.280,366.000 66.056 C 366.000 65.832,364.380 64.017,362.400 62.022 C 360.420 60.027,358.800 58.285,358.800 58.152 C 358.800 58.019,357.778 56.986,356.530 55.855 C 355.281 54.725,352.764 52.315,350.935 50.500 C 349.107 48.685,347.457 47.200,347.269 47.200 C 347.081 47.200,346.070 46.390,345.022 45.400 C 343.974 44.410,342.987 43.600,342.830 43.600 C 342.673 43.600,341.939 43.060,341.200 42.400 C 340.461 41.740,339.691 41.200,339.488 41.200 C 339.286 41.200,338.617 40.660,338.000 40.000 C 337.383 39.340,336.631 38.800,336.328 38.800 C 336.025 38.800,335.517 38.440,335.200 38.000 C 334.883 37.560,334.438 37.200,334.212 37.199 C 333.985 37.199,333.170 36.659,332.400 36.000 C 331.630 35.341,330.857 34.801,330.683 34.801 C 330.509 34.800,329.980 34.440,329.508 34.000 C 329.036 33.560,328.413 33.200,328.125 33.200 C 327.836 33.200,327.600 33.020,327.600 32.800 C 327.600 32.580,327.306 32.400,326.947 32.400 C 326.588 32.400,326.003 32.084,325.647 31.697 C 325.291 31.311,324.460 30.726,323.800 30.398 C 323.140 30.070,322.501 29.669,322.380 29.507 C 321.955 28.937,311.885 24.000,311.148 24.000 C 310.736 24.000,310.400 23.820,310.400 23.600 C 310.400 23.380,310.040 23.200,309.600 23.200 C 309.160 23.200,308.800 23.020,308.800 22.800 C 308.800 22.580,308.530 22.400,308.200 22.400 C 307.870 22.400,307.600 22.220,307.600 22.000 C 307.600 21.780,307.240 21.600,306.800 21.600 C 306.360 21.600,306.000 21.420,306.000 21.200 C 306.000 20.980,305.640 20.800,305.200 20.800 C 304.760 20.800,304.400 20.620,304.400 20.400 C 304.400 20.180,304.051 20.000,303.624 20.000 C 303.197 20.000,302.736 19.820,302.600 19.600 C 302.464 19.380,301.913 19.200,301.376 19.200 C 300.839 19.200,300.400 19.020,300.400 18.800 C 300.400 18.580,300.040 18.400,299.600 18.400 C 299.160 18.400,298.800 18.253,298.800 18.072 C 298.800 17.892,297.900 17.500,296.800 17.200 C 295.700 16.900,294.800 16.508,294.800 16.328 C 294.800 16.147,294.260 16.000,293.600 16.000 C 292.940 16.000,292.400 15.820,292.400 15.600 C 292.400 15.380,292.128 15.200,291.795 15.200 C 291.207 15.200,290.782 15.033,288.905 14.062 C 288.413 13.808,287.659 13.600,287.229 13.600 C 286.799 13.600,286.336 13.420,286.200 13.200 C 286.064 12.980,285.524 12.800,285.000 12.800 C 284.476 12.800,283.936 12.620,283.800 12.400 C 283.664 12.180,283.124 12.000,282.600 12.000 C 282.076 12.000,281.536 11.820,281.400 11.600 C 281.264 11.380,280.533 11.200,279.776 11.200 C 279.019 11.200,278.400 11.020,278.400 10.800 C 278.400 10.580,277.871 10.400,277.224 10.400 C 276.577 10.400,275.936 10.220,275.800 10.000 C 275.664 9.780,275.059 9.600,274.456 9.600 C 273.853 9.600,273.176 9.416,272.952 9.192 C 272.727 8.967,271.341 8.671,269.872 8.534 C 268.402 8.397,267.200 8.130,267.200 7.942 C 267.200 7.754,266.390 7.600,265.400 7.600 C 264.410 7.600,263.600 7.420,263.600 7.200 C 263.600 6.980,262.880 6.800,262.000 6.800 C 261.120 6.800,260.400 6.620,260.400 6.400 C 260.400 6.180,259.601 6.000,258.624 6.000 C 257.647 6.000,256.736 5.820,256.600 5.600 C 256.464 5.380,255.553 5.200,254.576 5.200 C 253.599 5.200,252.800 5.020,252.800 4.800 C 252.800 4.578,251.733 4.400,250.400 4.400 C 249.067 4.400,248.000 4.222,248.000 4.000 C 248.000 3.778,246.933 3.600,245.600 3.600 C 244.267 3.600,243.200 3.422,243.200 3.200 C 243.200 2.969,241.933 2.800,240.200 2.800 C 238.467 2.800,237.200 2.631,237.200 2.400 C 237.200 2.167,235.875 2.000,234.024 2.000 C 232.277 2.000,230.736 1.820,230.600 1.600 C 230.461 1.375,228.540 1.200,226.210 1.200 C 223.931 1.200,222.007 1.043,221.933 0.851 C 221.783 0.458,197.350 0.071,185.900 0.280 M197.225 45.931 C 194.642 47.316,194.355 48.446,194.485 56.732 L 194.600 64.063 196.068 65.407 C 198.738 67.853,202.468 67.510,204.524 64.629 C 205.770 62.881,206.067 50.642,204.917 48.408 C 203.420 45.500,200.050 44.415,197.225 45.931 M149.674 46.029 C 147.795 46.427,146.642 47.670,144.529 51.581 C 143.513 53.461,142.269 55.753,141.764 56.672 C 137.749 63.992,145.597 70.455,150.539 63.900 C 152.062 61.880,156.800 52.524,156.800 51.536 C 156.800 48.053,153.212 45.280,149.674 46.029 M245.719 46.760 C 241.724 49.270,243.009 55.123,249.482 63.900 C 253.846 69.818,262.079 64.315,258.715 57.729 C 253.122 46.777,249.951 44.101,245.719 46.760 M373.557 156.396 C 386.485 160.291,392.460 176.327,386.003 189.800 C 383.574 194.868,380.940 197.167,373.800 200.448 C 372.293 201.141,31.794 201.493,28.008 200.806 C 7.028 196.998,5.500 163.351,25.991 156.406 C 29.575 155.191,369.526 155.182,373.557 156.396 M362.600 219.800 L 362.600 226.600 302.860 226.701 C 244.076 226.801,243.102 226.815,242.009 227.593 C 238.641 229.992,238.959 235.228,242.600 237.337 C 243.192 237.680,258.887 237.852,303.000 238.000 L 362.600 238.200 362.600 252.000 L 362.600 265.800 361.491 267.687 C 358.156 273.359,351.980 274.164,345.961 269.711 C 334.295 261.081,318.894 260.782,306.600 268.946 C 305.280 269.823,304.110 270.655,304.000 270.795 C 302.063 273.270,294.177 277.953,290.216 278.981 C 282.013 281.111,275.601 279.277,266.022 272.062 C 256.940 265.222,252.856 263.636,243.479 263.307 C 232.739 262.931,227.901 264.664,217.258 272.698 C 204.720 282.163,195.383 282.296,183.200 273.182 C 172.175 264.936,167.785 263.200,157.950 263.200 C 150.014 263.200,140.509 266.011,137.600 269.218 C 137.490 269.339,136.770 269.877,136.000 270.414 C 135.230 270.950,134.330 271.615,134.000 271.893 C 130.350 274.959,123.986 278.800,122.554 278.800 C 121.623 278.800,121.555 277.384,121.679 260.390 L 121.800 243.800 122.896 241.935 C 123.500 240.909,124.670 239.649,125.496 239.135 L 127.000 238.200 173.218 238.000 C 216.899 237.811,219.496 237.760,220.537 237.078 C 223.921 234.861,224.081 229.936,220.844 227.632 C 219.112 226.398,127.604 226.312,123.880 227.540 C 117.262 229.724,112.581 234.795,110.972 241.526 C 110.534 243.358,110.426 251.206,110.414 281.881 C 110.404 309.446,110.274 320.271,109.944 321.081 C 108.777 323.942,108.365 324.683,107.303 325.835 C 101.746 331.860,91.978 330.433,88.069 323.025 L 87.000 321.000 86.799 281.200 C 86.613 244.251,86.548 241.272,85.886 239.613 C 84.183 235.339,81.663 232.115,78.272 229.868 C 73.940 226.998,74.122 227.022,54.800 226.800 L 37.400 226.600 37.289 220.216 C 37.229 216.705,37.268 213.600,37.377 213.316 C 37.539 212.894,67.599 212.818,200.088 212.900 L 362.600 213.000 362.600 219.800 M71.082 238.840 C 72.158 239.360,73.306 240.385,74.108 241.540 L 75.400 243.400 75.532 252.720 C 75.689 263.755,75.897 263.200,71.615 263.200 C 65.842 263.200,59.496 265.490,54.293 269.451 C 47.587 274.557,40.996 273.495,37.847 266.800 C 37.017 265.037,36.243 240.429,36.958 238.566 C 37.366 237.501,68.839 237.754,71.082 238.840 M25.705 263.500 C 26.744 281.805,45.939 290.122,60.942 278.767 C 62.816 277.348,64.740 276.286,67.278 275.269 C 69.105 274.537,74.298 274.218,74.993 274.794 C 75.871 275.523,75.910 303.245,75.034 303.972 C 74.145 304.709,28.371 304.357,26.200 303.596 C 19.079 301.100,14.025 295.673,12.162 288.520 C 11.113 284.490,11.463 275.258,12.797 271.800 C 14.530 267.305,18.620 262.588,22.426 260.693 C 25.516 259.154,25.455 259.102,25.705 263.500 M377.403 260.660 C 384.870 264.622,388.415 271.290,388.386 281.320 C 388.353 292.531,383.962 299.514,374.600 303.243 L 372.200 304.199 247.227 304.305 C 146.935 304.389,122.190 304.310,121.933 303.905 C 121.576 303.343,121.486 292.659,121.828 291.400 C 121.994 290.788,122.721 290.437,124.922 289.908 C 129.157 288.889,133.549 286.545,139.400 282.182 C 148.667 275.270,150.278 274.609,157.800 274.629 C 165.185 274.649,167.446 275.578,176.173 282.177 C 193.003 294.901,208.029 294.480,225.600 280.789 C 232.180 275.662,234.921 274.633,242.000 274.632 C 249.760 274.630,252.014 275.585,261.269 282.796 C 276.444 294.620,292.162 294.182,308.941 281.469 C 320.230 272.914,329.827 272.024,338.848 278.694 C 344.525 282.892,347.035 283.783,353.200 283.790 C 365.056 283.803,373.297 275.727,374.245 263.168 C 374.549 259.152,374.554 259.148,377.403 260.660 M75.683 319.000 C 76.738 330.918,84.182 338.962,95.834 340.774 C 108.133 342.687,120.528 332.730,121.445 320.200 C 121.558 318.660,121.733 316.995,121.833 316.499 L 122.016 315.599 242.290 315.699 L 362.564 315.800 362.913 317.400 C 363.359 319.448,362.635 328.219,361.625 333.000 C 356.601 356.790,338.734 374.188,310.215 383.063 C 304.091 384.969,302.990 385.239,296.800 386.360 C 288.789 387.810,289.444 387.800,200.000 387.800 C 110.556 387.800,111.211 387.810,103.200 386.360 C 97.089 385.254,95.826 384.947,90.200 383.203 C 59.979 373.835,41.805 355.309,37.616 329.600 C 36.893 325.160,36.625 317.475,37.159 316.477 L 37.632 315.592 56.516 315.696 L 75.400 315.800 75.683 319.000 " stroke="none" fill="#070604" fill-rule="evenodd"></path><path id="path1" d="M185.400 13.238 C 182.980 13.433,178.570 13.788,175.600 14.027 C 165.079 14.874,151.517 16.848,142.800 18.801 C 141.810 19.023,140.190 19.375,139.200 19.582 C 136.797 20.086,134.544 20.645,132.600 21.220 C 129.983 21.995,127.208 22.136,126.052 21.554 C 124.557 20.802,122.400 18.436,122.400 17.550 C 122.400 16.761,121.422 16.517,121.000 17.200 C 120.864 17.420,120.223 17.600,119.576 17.600 C 118.929 17.600,118.400 17.780,118.400 18.000 C 118.400 18.220,117.860 18.400,117.200 18.400 C 116.540 18.400,116.000 18.580,116.000 18.800 C 116.000 19.020,115.460 19.200,114.800 19.200 C 114.140 19.200,113.600 19.380,113.600 19.600 C 113.600 19.820,113.238 20.000,112.795 20.000 C 112.352 20.000,111.587 20.208,111.095 20.462 C 110.603 20.716,109.930 21.050,109.600 21.204 C 109.186 21.396,108.967 22.215,108.893 23.841 C 108.706 27.989,107.607 29.329,102.600 31.521 C 97.826 33.610,91.262 36.849,87.800 38.823 C 86.260 39.702,84.685 40.527,84.300 40.657 C 83.915 40.787,83.600 41.052,83.600 41.247 C 83.600 41.441,83.407 41.600,83.172 41.600 C 82.937 41.600,81.959 42.140,81.000 42.800 C 80.041 43.460,79.145 44.000,79.010 44.000 C 78.434 44.000,69.593 50.355,64.038 54.762 C 59.731 58.180,46.857 70.687,44.515 73.730 C 43.808 74.649,42.818 75.871,42.315 76.447 C 41.812 77.022,40.950 78.086,40.400 78.810 C 39.850 79.534,39.211 80.323,38.981 80.563 C 36.999 82.629,28.592 95.872,26.135 100.800 C 25.531 102.010,24.937 103.090,24.813 103.200 C 24.513 103.468,22.001 108.799,20.243 112.900 C 19.889 113.725,19.345 114.985,19.034 115.700 C 14.882 125.234,14.628 130.669,18.081 136.106 C 20.591 140.059,23.936 142.226,29.000 143.182 C 31.760 143.702,369.568 143.567,372.000 143.045 C 373.719 142.675,376.730 141.245,377.775 140.301 C 378.202 139.915,378.693 139.600,378.866 139.600 C 379.545 139.600,382.387 135.482,383.191 133.332 C 384.370 130.182,384.359 125.275,383.167 121.883 C 380.566 114.484,375.933 104.254,372.533 98.400 C 371.957 97.410,371.179 96.060,370.803 95.400 C 368.823 91.925,361.455 81.098,360.095 79.665 C 359.816 79.371,359.097 78.471,358.496 77.665 C 357.896 76.859,357.309 76.110,357.192 76.000 C 357.075 75.890,355.995 74.630,354.791 73.200 C 351.996 69.878,342.471 60.346,339.600 57.999 C 338.390 57.010,337.040 55.870,336.600 55.466 C 334.231 53.293,320.068 43.200,319.387 43.200 C 319.254 43.200,318.359 42.660,317.400 42.000 C 316.441 41.340,315.478 40.800,315.261 40.800 C 315.044 40.800,314.807 40.665,314.733 40.500 C 314.544 40.073,299.630 32.400,298.991 32.400 C 298.897 32.400,297.691 31.892,296.310 31.270 C 294.930 30.649,293.170 29.899,292.400 29.603 C 291.630 29.308,290.820 28.949,290.600 28.805 C 290.380 28.662,289.390 28.299,288.400 28.000 C 287.410 27.701,286.420 27.341,286.200 27.200 C 285.980 27.059,284.990 26.700,284.000 26.402 C 283.010 26.105,282.029 25.712,281.820 25.530 C 281.611 25.349,281.114 25.200,280.715 25.200 C 280.316 25.200,279.677 25.038,279.295 24.839 C 278.913 24.640,277.790 24.260,276.800 23.993 C 275.810 23.727,274.640 23.370,274.200 23.200 C 273.760 23.030,272.590 22.678,271.600 22.418 C 270.610 22.159,269.260 21.796,268.600 21.612 C 267.481 21.302,262.269 20.036,258.600 19.185 C 254.366 18.203,245.158 16.539,240.800 15.968 C 239.150 15.752,236.540 15.402,235.000 15.190 C 221.826 13.375,196.203 12.367,185.400 13.238 M201.400 44.800 C 201.536 45.020,201.968 45.200,202.359 45.200 C 206.803 45.200,208.202 61.760,204.106 65.865 C 201.117 68.860,195.862 67.715,194.185 63.703 C 193.143 61.208,193.385 50.264,194.532 48.021 C 195.827 45.489,200.478 43.308,201.400 44.800 M153.914 46.048 C 155.770 47.039,157.200 49.403,157.200 51.480 C 157.200 52.866,156.567 54.360,154.006 59.017 C 153.285 60.328,152.406 61.940,152.053 62.600 C 149.044 68.221,142.484 68.405,140.198 62.934 C 139.352 60.910,140.659 55.835,142.396 54.400 C 142.529 54.290,143.124 53.192,143.719 51.960 C 146.719 45.745,149.895 43.903,153.914 46.048 M250.851 45.765 C 252.909 46.627,253.378 47.224,257.328 54.000 C 260.942 60.201,261.150 62.490,258.335 65.050 C 253.961 69.027,250.399 67.261,245.731 58.800 C 245.064 57.590,244.131 55.920,243.659 55.088 C 240.602 49.707,245.404 43.483,250.851 45.765 M355.715 213.496 C 356.988 213.576,358.968 213.575,360.115 213.494 C 361.262 213.414,360.220 213.349,357.800 213.350 C 355.380 213.351,354.442 213.416,355.715 213.496 M37.737 322.500 C 37.940 328.413,38.252 331.042,39.197 334.800 C 39.446 335.790,39.749 337.097,39.871 337.705 C 39.993 338.313,40.251 338.908,40.446 339.029 C 40.641 339.149,40.800 339.599,40.800 340.029 C 40.800 340.459,40.959 341.123,41.153 341.505 C 41.348 341.887,41.689 342.650,41.911 343.200 C 45.881 353.007,53.134 362.098,62.590 369.119 C 66.647 372.132,67.512 372.682,71.600 374.847 C 72.590 375.371,73.460 375.935,73.533 376.100 C 73.607 376.265,74.012 376.400,74.433 376.400 C 74.855 376.400,75.200 376.580,75.200 376.800 C 75.200 377.020,75.472 377.200,75.805 377.200 C 76.138 377.200,76.723 377.377,77.105 377.594 C 82.542 380.675,96.051 384.771,104.800 385.991 C 106.670 386.252,109.295 386.630,110.633 386.832 C 114.032 387.346,285.577 387.319,289.323 386.805 C 297.369 385.699,298.918 385.440,302.800 384.548 C 311.779 382.487,324.821 377.356,330.600 373.612 C 331.480 373.042,332.695 372.326,333.300 372.020 C 333.905 371.715,334.400 371.315,334.400 371.132 C 334.400 370.950,334.670 370.800,335.000 370.800 C 335.330 370.800,335.600 370.659,335.600 370.486 C 335.600 370.314,336.146 369.850,336.813 369.456 C 339.374 367.943,344.735 363.134,347.809 359.593 C 349.586 357.545,352.800 353.301,352.800 353.002 C 352.800 352.860,353.303 351.992,353.917 351.072 C 354.951 349.525,357.161 345.151,358.096 342.800 C 358.314 342.250,358.652 341.487,358.847 341.105 C 359.041 340.723,359.200 340.059,359.200 339.629 C 359.200 339.199,359.380 338.736,359.600 338.600 C 359.820 338.464,360.000 337.834,360.000 337.200 C 360.000 336.566,360.161 335.948,360.358 335.826 C 360.555 335.705,360.818 334.929,360.943 334.103 C 361.068 333.276,361.384 331.340,361.647 329.800 C 361.909 328.260,362.141 324.660,362.162 321.800 L 362.200 316.600 242.200 316.600 L 122.200 316.600 121.953 319.800 C 121.511 325.524,119.742 329.705,116.092 333.648 C 114.010 335.896,109.721 339.200,108.883 339.200 C 108.685 339.200,107.920 339.501,107.184 339.868 C 99.655 343.624,88.735 341.246,81.965 334.375 C 79.138 331.507,76.400 327.142,76.400 325.505 C 76.400 325.205,76.238 324.789,76.041 324.580 C 75.698 324.217,75.516 323.200,74.953 318.500 L 74.701 316.400 56.115 316.400 L 37.528 316.400 37.737 322.500 " stroke="none" fill="#fb933b" fill-rule="evenodd"></path><path id="path2" d="M181.400 12.842 C 166.455 14.175,161.900 14.757,150.000 16.858 C 145.436 17.664,143.197 18.145,136.000 19.868 C 126.879 22.051,125.181 21.844,123.363 18.328 C 123.021 17.666,122.651 17.216,122.541 17.326 C 122.246 17.621,123.422 19.706,124.274 20.400 C 126.419 22.146,128.710 22.371,132.600 21.220 C 134.544 20.645,136.797 20.086,139.200 19.582 C 140.190 19.375,141.810 19.023,142.800 18.801 C 143.790 18.579,145.500 18.229,146.600 18.022 C 174.980 12.684,201.293 11.521,229.000 14.379 C 237.425 15.248,250.495 17.292,257.000 18.759 C 257.880 18.957,259.500 19.315,260.600 19.555 C 261.700 19.794,263.320 20.184,264.200 20.422 C 266.721 21.102,268.502 21.544,269.800 21.812 C 270.460 21.949,271.360 22.206,271.800 22.385 C 272.240 22.563,273.410 22.930,274.400 23.200 C 275.390 23.470,276.560 23.827,277.000 23.993 C 277.440 24.159,279.060 24.688,280.600 25.168 C 282.140 25.648,283.760 26.194,284.200 26.380 C 284.640 26.567,285.630 26.936,286.400 27.200 C 287.170 27.464,288.205 27.843,288.700 28.040 C 289.195 28.238,290.050 28.580,290.600 28.800 C 291.150 29.020,292.005 29.361,292.500 29.557 C 298.490 31.934,309.045 37.003,314.100 39.931 C 314.925 40.409,316.228 41.156,316.996 41.591 C 319.583 43.057,330.179 50.282,332.800 52.368 C 334.230 53.506,335.673 54.654,336.006 54.919 C 339.690 57.845,341.901 59.857,347.200 65.107 C 350.610 68.486,354.071 72.094,354.890 73.125 C 355.710 74.156,356.791 75.450,357.292 76.000 C 361.358 80.460,370.041 93.460,373.856 100.800 C 374.485 102.010,375.135 103.060,375.300 103.133 C 375.465 103.207,375.600 103.612,375.600 104.033 C 375.600 104.455,375.736 104.800,375.902 104.800 C 376.069 104.800,376.447 105.385,376.743 106.100 C 377.039 106.815,377.695 108.300,378.202 109.400 C 380.491 114.373,381.200 116.059,381.200 116.532 C 381.200 116.811,381.356 117.211,381.547 117.420 C 382.221 118.159,384.022 124.092,384.258 126.356 C 385.085 134.265,379.844 141.160,371.494 143.147 C 368.762 143.797,31.238 143.797,28.506 143.147 C 24.518 142.198,22.980 141.376,20.373 138.800 C 14.611 133.108,14.231 126.802,18.986 115.800 C 19.272 115.140,19.816 113.880,20.196 113.000 C 24.548 102.913,29.068 94.782,35.535 85.400 C 37.204 82.980,38.756 80.804,38.984 80.563 C 39.213 80.323,39.850 79.534,40.400 78.810 C 40.950 78.086,41.812 77.022,42.315 76.447 C 42.818 75.871,43.808 74.649,44.515 73.730 C 46.792 70.772,59.676 58.231,63.800 54.960 C 69.935 50.093,78.384 44.000,78.998 44.000 C 79.140 44.000,80.009 43.482,80.930 42.848 C 84.827 40.167,93.349 35.666,101.000 32.248 C 107.757 29.229,108.800 28.127,108.800 24.005 C 108.800 22.682,108.623 21.600,108.406 21.600 C 108.166 21.600,108.103 22.500,108.245 23.900 C 108.549 26.904,107.523 28.547,104.395 30.067 C 103.188 30.654,99.330 32.505,95.821 34.182 C 89.047 37.419,83.651 40.368,79.922 42.871 C 78.669 43.712,77.488 44.400,77.297 44.400 C 77.107 44.400,76.602 44.715,76.175 45.100 C 75.749 45.485,73.960 46.779,72.200 47.974 C 60.200 56.129,47.519 68.432,37.748 81.400 C 35.059 84.969,30.400 91.831,30.400 92.223 C 30.400 92.362,30.061 92.954,29.647 93.538 C 25.299 99.672,16.822 118.436,15.194 125.533 C 13.535 132.762,19.355 141.307,27.400 143.456 C 30.074 144.170,368.675 144.269,372.080 143.557 C 381.712 141.541,387.116 131.525,383.818 121.800 C 381.348 114.516,375.398 101.894,371.119 94.860 C 369.733 92.584,368.266 90.154,367.857 89.460 C 366.857 87.764,361.447 80.284,359.426 77.804 C 350.746 67.149,341.671 58.339,331.688 50.876 C 327.988 48.110,318.961 42.000,318.574 42.000 C 318.436 42.000,317.827 41.646,317.220 41.214 C 314.094 38.988,301.429 32.599,295.000 30.004 C 294.560 29.827,293.570 29.408,292.800 29.074 C 292.030 28.739,290.590 28.164,289.600 27.796 C 288.610 27.427,287.440 26.971,287.000 26.782 C 283.566 25.306,269.906 21.224,263.000 19.610 C 261.020 19.148,258.680 18.600,257.800 18.394 C 253.902 17.481,247.227 16.294,239.902 15.212 C 238.526 15.009,236.680 14.733,235.800 14.600 C 233.940 14.318,227.997 13.698,222.000 13.159 C 216.209 12.639,186.298 12.406,181.400 12.842 M197.221 45.332 C 192.644 47.673,191.752 62.564,195.976 66.118 C 199.503 69.086,204.679 67.292,205.900 62.678 C 206.533 60.287,206.550 52.150,205.928 49.678 C 204.855 45.420,200.905 43.448,197.221 45.332 M148.306 45.861 C 146.498 46.814,145.467 48.418,140.754 57.600 C 139.114 60.796,139.432 62.987,141.867 65.255 C 145.245 68.401,149.418 67.236,152.092 62.400 C 152.639 61.410,153.496 59.880,153.997 59.000 C 157.444 52.937,157.823 51.243,156.352 48.486 C 154.850 45.673,151.029 44.426,148.306 45.861 M202.841 46.108 C 205.359 47.790,205.649 48.925,205.517 56.600 C 205.384 64.341,205.082 65.210,202.049 66.578 C 199.929 67.534,197.971 67.150,196.068 65.407 L 194.600 64.063 194.485 56.732 C 194.383 50.200,194.452 49.251,195.116 48.031 C 196.594 45.317,200.283 44.399,202.841 46.108 M245.751 46.196 C 242.704 48.022,241.784 51.783,243.600 54.988 C 244.040 55.765,244.760 57.030,245.200 57.800 C 245.640 58.570,246.350 59.818,246.779 60.574 C 249.500 65.378,250.493 66.328,253.161 66.685 C 258.551 67.408,261.788 62.586,259.259 57.600 C 258.160 55.433,257.785 54.764,255.217 50.400 C 252.266 45.383,249.303 44.067,245.751 46.196 M154.314 46.836 C 155.350 47.480,156.800 50.221,156.800 51.536 C 156.800 52.524,152.062 61.880,150.539 63.900 C 145.597 70.455,137.749 63.992,141.764 56.672 C 142.269 55.753,143.513 53.461,144.529 51.581 C 147.618 45.865,150.500 44.467,154.314 46.836 M252.401 47.435 C 253.502 48.555,256.655 53.695,258.715 57.729 C 262.079 64.315,253.846 69.818,249.482 63.900 C 246.694 60.120,243.200 53.306,243.200 51.649 C 243.200 46.705,249.048 44.027,252.401 47.435 M25.991 156.406 C 5.500 163.351,7.028 196.998,28.008 200.806 C 31.794 201.493,372.293 201.141,373.800 200.448 C 380.940 197.167,383.574 194.868,386.003 189.800 C 392.460 176.327,386.485 160.291,373.557 156.396 C 369.526 155.182,29.575 155.191,25.991 156.406 M37.377 213.316 C 37.268 213.600,37.229 216.705,37.289 220.216 L 37.400 226.600 54.800 226.800 C 74.122 227.022,73.940 226.998,78.272 229.868 C 81.663 232.115,84.183 235.339,85.886 239.613 C 86.548 241.272,86.613 244.251,86.799 281.200 L 87.000 321.000 88.069 323.025 C 91.978 330.433,101.746 331.860,107.303 325.835 C 108.365 324.683,108.777 323.942,109.944 321.081 C 110.274 320.271,110.404 309.446,110.414 281.881 C 110.426 251.206,110.534 243.358,110.972 241.526 C 112.581 234.795,117.262 229.724,123.880 227.540 C 127.604 226.312,219.112 226.398,220.844 227.632 C 224.081 229.936,223.921 234.861,220.537 237.078 C 219.496 237.760,216.899 237.811,173.218 238.000 L 127.000 238.200 125.496 239.135 C 123.828 240.172,121.845 243.186,122.105 244.289 C 122.226 244.804,122.359 244.669,122.589 243.800 C 123.061 242.009,124.650 240.093,126.407 239.196 C 127.939 238.415,128.828 238.400,173.365 238.400 C 220.513 238.400,219.750 238.425,221.732 236.800 C 224.759 234.317,223.918 228.274,220.335 226.763 C 218.383 225.940,126.523 225.920,124.400 226.742 C 118.327 229.094,114.410 232.441,112.108 237.243 C 109.937 241.773,110.000 240.470,110.000 281.200 C 110.000 309.411,109.877 319.735,109.525 320.954 C 106.645 330.943,92.834 332.092,88.479 322.704 L 87.600 320.809 87.600 283.781 C 87.600 239.307,87.650 239.873,83.201 233.952 C 80.730 230.663,78.961 229.420,73.000 226.782 C 72.085 226.377,67.742 226.211,54.690 226.084 L 37.580 225.916 37.690 219.658 L 37.800 213.400 200.000 213.400 L 362.200 213.400 362.310 219.691 L 362.420 225.982 302.910 226.091 C 238.491 226.209,242.492 226.065,240.531 228.328 C 238.054 231.187,238.867 235.591,242.223 237.493 L 243.800 238.387 303.095 238.393 L 362.389 238.400 362.503 251.500 L 362.617 264.600 362.608 251.400 L 362.600 238.200 303.000 238.000 C 258.887 237.852,243.192 237.680,242.600 237.337 C 238.959 235.228,238.641 229.992,242.009 227.593 C 243.102 226.815,244.076 226.801,302.860 226.701 L 362.600 226.600 362.600 219.800 L 362.600 213.000 200.088 212.900 C 67.599 212.818,37.539 212.894,37.377 213.316 M36.958 238.566 C 36.243 240.429,37.017 265.037,37.847 266.800 C 40.996 273.495,47.587 274.557,54.293 269.451 C 57.529 266.988,61.585 264.977,65.261 264.014 C 66.877 263.590,67.735 263.234,67.166 263.222 C 64.384 263.163,58.169 265.961,53.641 269.310 C 47.304 273.998,40.856 272.743,38.080 266.281 C 37.738 265.485,37.600 261.309,37.600 251.781 L 37.600 238.400 53.351 238.400 C 70.486 238.400,70.779 238.434,72.851 240.667 C 74.746 242.709,74.800 243.050,74.800 252.974 L 74.800 262.400 72.700 262.447 C 68.862 262.534,67.859 263.100,71.451 263.153 C 75.923 263.218,75.690 263.814,75.532 252.720 L 75.400 243.400 74.108 241.540 C 71.637 237.981,71.748 238.000,53.261 238.000 C 39.764 238.000,37.140 238.091,36.958 238.566 M121.702 261.400 C 121.605 279.203,121.596 279.127,123.697 278.434 C 125.848 277.724,132.953 273.175,134.400 271.582 C 134.510 271.461,135.230 270.929,136.000 270.400 C 136.770 269.871,137.490 269.331,137.600 269.200 C 137.710 269.069,138.669 268.459,139.731 267.846 C 140.794 267.232,141.574 266.640,141.465 266.531 C 141.164 266.230,137.077 268.942,132.520 272.466 C 128.068 275.909,124.457 278.000,122.964 278.000 L 122.009 278.000 121.900 261.500 L 121.791 245.000 121.702 261.400 M22.426 260.693 C 18.620 262.588,14.530 267.305,12.797 271.800 C 11.463 275.258,11.113 284.490,12.162 288.520 C 14.025 295.673,19.079 301.100,26.200 303.596 C 28.371 304.357,74.145 304.709,75.034 303.972 C 75.910 303.245,75.871 275.523,74.993 274.794 C 74.298 274.218,69.105 274.537,67.278 275.269 C 64.740 276.286,62.816 277.348,60.942 278.767 C 45.939 290.122,26.744 281.805,25.705 263.500 C 25.455 259.102,25.516 259.154,22.426 260.693 M374.245 263.168 C 372.822 282.027,354.326 290.140,338.848 278.694 C 329.827 272.024,320.230 272.914,308.941 281.469 C 292.162 294.182,276.444 294.620,261.269 282.796 C 252.014 275.585,249.760 274.630,242.000 274.632 C 234.921 274.633,232.180 275.662,225.600 280.789 C 208.029 294.480,193.003 294.901,176.173 282.177 C 167.446 275.578,165.185 274.649,157.800 274.629 C 150.278 274.609,148.667 275.270,139.400 282.182 C 133.534 286.556,129.149 288.893,124.903 289.908 C 121.956 290.612,120.760 291.353,123.500 290.777 C 128.926 289.637,133.269 287.391,140.284 282.098 C 145.610 278.079,149.192 276.000,150.788 276.000 C 151.209 276.000,151.664 275.820,151.800 275.600 C 151.946 275.363,154.396 275.200,157.800 275.200 C 161.204 275.200,163.654 275.363,163.800 275.600 C 163.936 275.820,164.399 276.000,164.829 276.000 C 165.259 276.000,166.013 276.208,166.505 276.462 C 166.997 276.717,167.670 277.049,168.000 277.200 C 168.881 277.604,170.448 278.531,171.170 279.075 C 171.516 279.336,173.240 280.645,175.000 281.983 C 179.806 285.638,181.137 286.504,184.200 287.968 C 188.182 289.871,189.088 290.170,194.000 291.203 C 197.349 291.907,208.382 291.302,209.380 290.359 C 209.589 290.162,210.176 290.000,210.685 290.000 C 211.194 290.000,211.923 289.840,212.305 289.644 C 212.687 289.448,213.900 288.868,215.000 288.355 C 217.827 287.036,219.529 285.920,225.084 281.745 C 232.579 276.112,234.936 275.200,242.000 275.200 C 249.168 275.200,251.592 276.181,260.076 282.513 C 263.087 284.761,266.327 286.992,267.276 287.472 C 270.961 289.335,272.585 290.000,273.452 290.000 C 273.947 290.000,274.450 290.157,274.568 290.348 C 274.932 290.938,278.753 291.325,284.200 291.325 C 289.647 291.325,293.468 290.938,293.832 290.348 C 293.950 290.157,294.489 290.000,295.029 290.000 C 295.569 290.000,296.323 289.840,296.705 289.644 C 297.087 289.448,298.300 288.869,299.400 288.358 C 302.118 287.094,309.936 281.805,311.200 280.374 C 312.194 279.248,317.266 276.538,320.028 275.656 C 321.800 275.090,331.457 275.044,331.800 275.600 C 331.936 275.820,332.391 276.000,332.811 276.000 C 333.914 276.000,338.829 278.924,340.739 280.716 C 345.802 285.466,358.065 285.586,365.045 280.953 C 368.851 278.427,373.600 272.106,373.600 269.567 C 373.600 269.171,373.757 268.750,373.948 268.632 C 374.139 268.514,374.424 266.613,374.580 264.409 C 374.774 261.675,375.019 260.400,375.352 260.400 C 376.063 260.400,377.993 261.349,377.997 261.700 C 377.999 261.865,378.227 262.000,378.504 262.000 C 380.864 262.000,386.508 270.201,387.451 275.000 C 390.079 288.379,384.279 299.501,372.772 303.147 C 371.721 303.480,338.350 303.600,246.672 303.600 L 122.000 303.600 121.912 297.500 L 121.825 291.400 121.697 297.000 C 121.627 300.080,121.671 303.007,121.794 303.505 L 122.018 304.410 247.109 304.305 L 372.200 304.199 374.600 303.243 C 392.067 296.285,393.838 269.381,377.403 260.660 C 374.554 259.148,374.549 259.152,374.245 263.168 M24.808 261.700 C 24.929 281.755,46.651 291.473,62.200 278.427 C 62.954 277.795,65.199 276.665,67.719 275.651 C 68.334 275.403,70.179 275.200,71.819 275.200 L 74.800 275.200 74.800 289.400 L 74.800 303.600 51.498 303.600 L 28.197 303.600 25.559 302.643 C 13.236 298.174,8.115 282.634,14.541 269.205 C 16.825 264.433,24.789 258.611,24.808 261.700 M153.200 262.800 C 152.600 262.992,154.441 263.117,157.800 263.113 C 161.172 263.108,162.923 262.984,162.200 262.800 C 160.609 262.395,154.464 262.395,153.200 262.800 M237.600 262.800 C 236.995 262.994,238.730 263.120,242.000 263.120 C 245.270 263.120,247.005 262.994,246.400 262.800 C 245.850 262.624,243.870 262.480,242.000 262.480 C 240.130 262.480,238.150 262.624,237.600 262.800 M322.000 262.800 C 321.390 262.995,323.031 263.120,326.200 263.120 C 329.369 263.120,331.010 262.995,330.400 262.800 C 329.850 262.624,327.960 262.480,326.200 262.480 C 324.440 262.480,322.550 262.624,322.000 262.800 M148.800 263.600 C 148.061 264.077,149.124 264.077,151.000 263.600 L 152.200 263.295 150.800 263.253 C 150.030 263.231,149.130 263.387,148.800 263.600 M166.867 264.156 C 172.506 265.649,174.892 266.968,183.200 273.182 C 187.789 276.615,190.491 278.160,192.656 278.590 C 193.792 278.815,193.793 278.813,192.800 278.367 C 192.250 278.120,191.487 277.756,191.105 277.559 C 190.723 277.361,190.138 277.200,189.805 277.200 C 189.472 277.200,189.200 277.020,189.200 276.800 C 189.200 276.580,188.975 276.399,188.700 276.399 C 188.261 276.398,183.362 272.874,179.218 269.578 C 175.545 266.658,167.515 263.171,164.572 263.219 C 163.894 263.230,164.862 263.625,166.867 264.156 M233.200 263.600 C 232.442 264.090,233.670 264.090,235.200 263.600 C 236.180 263.286,236.176 263.279,235.000 263.246 C 234.340 263.227,233.530 263.387,233.200 263.600 M248.200 263.431 C 255.791 265.203,258.953 266.733,266.000 272.043 C 275.600 279.278,282.005 281.113,290.216 278.981 C 294.177 277.953,302.063 273.270,304.000 270.795 C 305.403 269.003,313.178 265.121,317.200 264.204 C 321.053 263.325,321.409 263.177,319.200 263.371 C 314.948 263.745,308.775 266.603,303.600 270.593 C 293.976 278.015,291.814 278.960,284.400 278.984 C 279.699 278.999,276.516 278.484,275.420 277.530 C 275.211 277.349,274.796 277.200,274.498 277.200 C 273.998 277.200,269.914 274.600,268.438 273.342 C 261.920 267.786,254.181 263.781,249.200 263.387 C 248.210 263.308,247.760 263.328,248.200 263.431 M332.600 263.600 C 334.476 264.077,335.539 264.077,334.800 263.600 C 334.470 263.387,333.570 263.231,332.800 263.253 L 331.400 263.295 332.600 263.600 M145.200 264.678 C 144.430 265.014,143.370 265.455,142.845 265.656 C 142.319 265.858,141.969 266.102,142.066 266.200 C 142.164 266.297,143.584 265.848,145.222 265.202 C 146.860 264.556,147.840 264.036,147.400 264.046 C 146.960 264.057,145.970 264.341,145.200 264.678 M228.355 265.184 C 224.884 266.655,218.630 270.683,216.085 273.086 C 215.802 273.353,215.037 273.887,214.385 274.272 C 213.733 274.657,213.200 275.114,213.200 275.286 C 213.200 275.459,213.003 275.600,212.762 275.600 C 212.521 275.600,211.846 275.936,211.262 276.346 C 208.533 278.263,205.302 278.979,199.400 278.976 C 196.320 278.975,194.340 279.093,195.000 279.239 C 202.463 280.894,208.912 278.999,217.258 272.698 C 223.408 268.055,225.364 266.861,229.400 265.282 C 231.160 264.594,232.240 264.038,231.800 264.047 C 231.360 264.056,229.810 264.568,228.355 265.184 M336.000 264.400 C 336.788 264.909,337.715 264.909,337.400 264.400 C 337.264 264.180,336.758 264.003,336.276 264.006 C 335.564 264.011,335.512 264.085,336.000 264.400 M340.618 266.318 C 342.168 267.141,344.662 268.732,346.159 269.853 C 350.772 273.308,354.492 273.565,358.691 270.720 C 360.551 269.460,362.565 266.427,362.284 265.311 C 362.161 264.823,362.007 265.022,361.794 265.941 C 361.020 269.283,357.152 271.807,352.839 271.784 C 349.553 271.766,349.503 271.745,345.000 268.464 C 342.417 266.581,339.145 264.793,338.313 264.811 C 338.031 264.816,339.068 265.494,340.618 266.318 M37.159 316.477 C 36.625 317.475,36.893 325.160,37.616 329.600 C 41.805 355.309,59.979 373.835,90.200 383.203 C 95.826 384.947,97.089 385.254,103.200 386.360 C 111.211 387.810,110.556 387.800,200.000 387.800 C 289.444 387.800,288.789 387.810,296.800 386.360 C 302.990 385.239,304.091 384.969,310.215 383.063 C 338.734 374.188,356.601 356.790,361.625 333.000 C 362.635 328.219,363.359 319.448,362.913 317.400 L 362.564 315.800 242.290 315.699 L 122.016 315.599 121.833 316.499 C 121.733 316.995,121.558 318.660,121.445 320.200 C 120.528 332.730,108.133 342.687,95.834 340.774 C 84.182 338.962,76.738 330.918,75.683 319.000 L 75.400 315.800 56.516 315.696 L 37.632 315.592 37.159 316.477 M74.800 317.569 C 74.800 320.813,77.530 330.000,78.494 330.000 C 78.662 330.000,78.800 330.261,78.800 330.581 C 78.800 330.901,80.195 332.580,81.900 334.313 C 89.014 341.544,99.567 343.688,107.695 339.553 C 108.077 339.359,108.581 339.200,108.817 339.200 C 109.712 339.200,113.935 335.977,116.092 333.648 C 119.742 329.705,121.511 325.524,121.953 319.800 L 122.200 316.600 242.337 316.499 L 362.473 316.399 362.262 322.299 C 362.020 329.070,361.636 331.637,359.999 337.400 C 359.749 338.280,359.445 339.408,359.324 339.906 C 359.203 340.404,358.946 340.910,358.752 341.030 C 358.559 341.149,358.400 341.591,358.400 342.011 C 358.400 342.432,358.040 343.417,357.600 344.200 C 357.160 344.983,356.800 345.785,356.800 345.981 C 356.800 346.499,352.962 353.070,351.330 355.347 C 349.916 357.318,348.852 358.578,345.605 362.125 C 342.832 365.155,335.498 370.887,331.498 373.152 C 330.674 373.618,329.325 374.388,328.500 374.862 C 326.199 376.183,324.649 376.927,318.768 379.529 C 315.568 380.945,308.362 383.227,303.400 384.396 C 298.646 385.516,295.916 385.999,289.884 386.791 C 285.588 387.355,114.412 387.355,110.116 386.791 C 101.133 385.612,94.359 384.123,87.432 381.803 C 83.346 380.435,82.238 379.996,77.600 377.909 C 76.610 377.463,75.350 376.897,74.800 376.650 C 74.250 376.403,73.710 376.111,73.600 376.001 C 73.490 375.890,72.590 375.371,71.600 374.847 C 67.514 372.682,66.653 372.135,62.716 369.202 C 52.914 361.901,45.965 353.215,41.911 343.200 C 41.689 342.650,41.348 341.887,41.153 341.505 C 40.959 341.123,40.800 340.459,40.800 340.029 C 40.800 339.599,40.641 339.149,40.446 339.029 C 40.251 338.908,39.993 338.313,39.871 337.705 C 39.749 337.097,39.446 335.790,39.197 334.800 C 38.225 330.933,37.920 328.371,37.736 322.500 L 37.544 316.400 56.172 316.400 L 74.800 316.400 74.800 317.569 " stroke="none" fill="#9b542b" fill-rule="evenodd"></path><path id="path3" d="M37.867 213.467 C 37.720 213.613,37.600 216.474,37.600 219.825 L 37.600 225.916 54.700 226.084 C 67.744 226.211,72.085 226.377,73.000 226.782 C 78.961 229.420,80.730 230.663,83.201 233.952 C 87.650 239.873,87.600 239.307,87.600 283.781 L 87.600 320.809 88.479 322.704 C 92.834 332.092,106.645 330.943,109.525 320.954 C 109.877 319.735,110.000 309.411,110.000 281.200 C 110.000 240.470,109.937 241.773,112.108 237.243 C 114.410 232.441,118.327 229.094,124.400 226.742 C 126.523 225.920,218.383 225.940,220.335 226.763 C 223.918 228.274,224.759 234.317,221.732 236.800 C 219.750 238.425,220.513 238.400,173.365 238.400 C 122.410 238.400,126.157 238.181,123.903 241.296 C 122.066 243.836,122.000 244.541,122.000 261.728 L 122.000 278.000 122.959 278.000 C 124.512 278.000,127.879 275.999,133.505 271.732 C 148.843 260.099,166.266 259.278,179.218 269.578 C 183.362 272.874,188.261 276.398,188.700 276.399 C 188.975 276.399,189.200 276.580,189.200 276.800 C 189.200 277.020,189.524 277.200,189.920 277.200 C 190.316 277.200,190.811 277.349,191.020 277.530 C 193.971 280.097,207.009 279.334,211.262 276.346 C 211.846 275.936,212.521 275.600,212.762 275.600 C 213.003 275.600,213.200 275.459,213.200 275.286 C 213.200 275.114,213.733 274.657,214.385 274.272 C 215.037 273.887,215.802 273.350,216.085 273.079 C 225.547 264.005,238.292 260.734,252.200 263.810 C 255.545 264.550,263.828 269.412,268.438 273.342 C 269.914 274.600,273.998 277.200,274.498 277.200 C 274.796 277.200,275.211 277.349,275.420 277.530 C 276.516 278.484,279.699 278.999,284.400 278.984 C 291.814 278.960,293.976 278.015,303.600 270.593 C 306.905 268.045,313.774 264.347,316.200 263.810 C 323.762 262.138,328.972 262.100,335.000 263.674 C 338.573 264.606,341.468 265.972,344.594 268.200 C 349.700 271.839,349.533 271.766,352.839 271.784 C 356.363 271.803,357.510 271.342,359.800 268.990 C 362.283 266.440,362.400 265.638,362.400 251.206 L 362.400 238.400 303.100 238.393 L 243.800 238.387 242.223 237.493 C 238.867 235.591,238.054 231.187,240.531 228.328 C 242.492 226.065,238.492 226.209,302.900 226.091 L 362.400 225.982 362.400 219.854 L 362.400 213.726 355.736 213.463 C 346.966 213.117,38.213 213.121,37.867 213.467 M37.600 251.781 C 37.600 261.309,37.738 265.485,38.080 266.281 C 40.856 272.743,47.304 273.998,53.641 269.310 C 59.539 264.947,66.618 262.435,73.100 262.407 L 74.800 262.400 74.800 252.974 C 74.800 243.050,74.746 242.709,72.851 240.667 C 70.779 238.434,70.486 238.400,53.351 238.400 L 37.600 238.400 37.600 251.781 " stroke="none" fill="#d7e863" fill-rule="evenodd"></path><path id="path4" d="M22.200 261.330 C 15.400 264.981,11.707 272.696,12.116 282.400 C 12.566 293.110,16.783 299.460,25.559 302.643 L 28.197 303.600 51.498 303.600 L 74.800 303.600 74.800 289.400 L 74.800 275.200 71.819 275.200 C 70.179 275.200,68.334 275.403,67.719 275.651 C 65.199 276.665,62.954 277.795,62.200 278.427 C 46.651 291.473,24.929 281.755,24.808 261.700 C 24.799 260.183,24.433 260.131,22.200 261.330 M374.580 264.409 C 374.424 266.613,374.139 268.514,373.948 268.632 C 373.757 268.750,373.600 269.171,373.600 269.567 C 373.600 272.106,368.851 278.427,365.045 280.953 C 358.065 285.586,345.802 285.466,340.739 280.716 C 338.829 278.924,333.914 276.000,332.811 276.000 C 332.391 276.000,331.936 275.820,331.800 275.600 C 331.457 275.044,321.800 275.090,320.028 275.656 C 317.266 276.538,312.194 279.248,311.200 280.374 C 309.936 281.805,302.118 287.094,299.400 288.358 C 298.300 288.869,297.087 289.448,296.705 289.644 C 296.323 289.840,295.569 290.000,295.029 290.000 C 294.489 290.000,293.950 290.157,293.832 290.348 C 293.468 290.938,289.647 291.325,284.200 291.325 C 278.753 291.325,274.932 290.938,274.568 290.348 C 274.450 290.157,273.947 290.000,273.452 290.000 C 272.585 290.000,270.961 289.335,267.276 287.472 C 266.327 286.992,263.087 284.761,260.076 282.513 C 251.592 276.181,249.168 275.200,242.000 275.200 C 234.936 275.200,232.579 276.112,225.084 281.745 C 219.529 285.920,217.827 287.036,215.000 288.355 C 213.900 288.868,212.687 289.448,212.305 289.644 C 211.923 289.840,211.194 290.000,210.685 290.000 C 210.176 290.000,209.589 290.162,209.380 290.359 C 208.382 291.302,197.349 291.907,194.000 291.203 C 189.088 290.170,188.182 289.871,184.200 287.968 C 181.137 286.504,179.806 285.638,175.000 281.983 C 173.240 280.645,171.516 279.336,171.170 279.075 C 170.305 278.423,169.271 277.842,166.405 276.400 C 165.968 276.180,165.259 276.000,164.829 276.000 C 164.399 276.000,163.936 275.820,163.800 275.600 C 163.654 275.363,161.204 275.200,157.800 275.200 C 154.396 275.200,151.946 275.363,151.800 275.600 C 151.664 275.820,151.209 276.000,150.788 276.000 C 149.192 276.000,145.610 278.079,140.284 282.098 C 133.275 287.387,127.716 290.216,123.000 290.895 C 122.244 291.004,122.194 291.358,122.090 297.305 L 121.980 303.600 246.661 303.600 C 338.348 303.600,371.721 303.480,372.772 303.147 C 382.954 299.920,387.698 293.030,387.745 281.400 C 387.773 274.508,387.136 271.999,384.239 267.600 C 382.885 265.543,379.256 262.000,378.504 262.000 C 378.227 262.000,377.999 261.865,377.997 261.700 C 377.993 261.349,376.063 260.400,375.352 260.400 C 375.019 260.400,374.774 261.675,374.580 264.409 " stroke="none" fill="#e84242" fill-rule="evenodd"></path></g></svg>